# xmcd
#
# Track frame offsets:
#	150
#	25541
#	64756
#	90415
#	119651
#	146202
#	175281
#	203499
#	223195
#	246677
#	269617
#
# Disc length: 3884 seconds
#
# Revision: 0
# Processed by: cddbd v1.5.2PL0 Copyright (c) Steve Scherf et al.
# Submitted via: dBpowerAMP V4.0
#
DISCID=ab0f2a0b
DTITLE=Mark Teixeira - Saturday Night
DYEAR=2006
DGENRE=Blues
TTITLE0=Dee Lawd
TTITLE1=Better get it in your soul
TTITLE2=Blues for the King
TTITLE3=Uh Huh
TTITLE4=Save your Love for me
TTITLE5=Jocelyn
TTITLE6=Splanky
TTITLE7=Mambo inn
TTITLE8=Lazy Bird
TTITLE9=Wham
TTITLE10=What A Difference
EXTD=
EXTT0=
EXTT1=
EXTT2=
EXTT3=
EXTT4=
EXTT5=
EXTT6=
EXTT7=
EXTT8=
EXTT9=
EXTT10=
PLAYORDER=
